<?xml version="1.0" standalone="no"?>
<!DOCTYPE svg PUBLIC "-//W3C//DTD SVG 20010904//EN"
 "http://www.w3.org/TR/2001/REC-SVG-20010904/DTD/svg10.dtd">
<svg version="1.0" xmlns="http://www.w3.org/2000/svg"
 width="1081.000000pt" height="1081.000000pt" viewBox="0 0 1081.000000 1081.000000"
 preserveAspectRatio="xMidYMid meet">
<metadata>
Created by potrace 1.14, written by Peter Selinger 2001-2017
</metadata>
<g transform="translate(0.000000,1081.000000) scale(0.100000,-0.100000)"
fill="#000000" stroke="none">
<path d="M4935 9239 c-341 -29 -709 -128 -965 -261 -251 -131 -312 -179 -635
-503 -159 -160 -330 -324 -380 -364 -218 -176 -551 -374 -725 -431 -182 -59
-224 -65 -430 -64 -207 1 -281 11 -377 55 -69 32 -70 32 -48 14 70 -59 207
-94 397 -102 264 -11 488 36 763 160 131 59 208 104 357 207 104 72 171 132
438 397 335 332 425 410 575 498 178 104 303 151 535 198 237 49 254 44 76
-23 -134 -51 -418 -192 -529 -263 -45 -30 -118 -82 -162 -118 -44 -35 -91 -72
-104 -81 -58 -40 -425 -406 -497 -495 -81 -99 -196 -269 -319 -468 -247 -400
-317 -491 -562 -729 -90 -86 -117 -94 -388 -105 -192 -7 -202 -8 -255 -35 -30
-16 -82 -55 -115 -87 l-60 -58 -73 41 c-96 53 -181 132 -216 202 -16 31 -31
55 -33 52 -10 -10 53 -117 93 -159 103 -108 270 -187 432 -204 67 -7 67 -7 27
-15 -74 -16 -243 7 -352 48 -129 48 -154 61 -250 132 -86 64 -155 142 -200
224 -35 65 -42 40 -10 -33 71 -158 221 -303 402 -390 44 -22 125 -51 180 -66
94 -25 114 -26 325 -27 184 -1 240 2 310 18 132 28 309 82 385 116 37 17 70
29 72 26 2 -2 -31 -34 -74 -72 -43 -37 -103 -91 -133 -120 -67 -63 -259 -199
-432 -305 -336 -206 -467 -313 -685 -562 -156 -178 -220 -269 -237 -339 -3
-16 -3 -28 2 -28 5 0 15 12 23 28 73 145 353 462 543 616 113 91 290 215 419
292 54 32 112 68 129 79 18 10 -39 -50 -126 -135 -151 -147 -235 -239 -443
-480 -89 -104 -297 -319 -362 -374 -58 -49 -135 -100 -199 -130 -60 -29 -81
-56 -44 -56 34 0 133 39 195 77 65 39 159 115 240 192 l49 46 -22 -42 c-12
-23 -45 -109 -74 -190 l-53 -148 -84 -42 c-104 -53 -218 -90 -323 -106 -45 -7
-79 -17 -76 -22 3 -6 50 -9 105 -8 100 2 201 22 297 59 26 10 49 16 51 14 3
-3 -2 -39 -9 -80 -16 -87 -34 -360 -27 -407 8 -50 20 -39 28 25 19 165 57 327
110 469 20 54 33 74 58 88 40 23 206 145 269 197 l46 38 -57 -112 c-180 -355
-293 -882 -255 -1187 14 -116 92 -253 175 -308 60 -40 59 -20 -4 45 -59 62
-83 118 -93 217 l-6 50 42 -72 c22 -40 45 -73 50 -73 14 0 12 17 -6 51 -22 44
-44 169 -44 257 0 108 23 241 59 352 102 306 447 867 774 1258 96 114 98 111
13 -23 -25 -38 -59 -94 -76 -124 -18 -30 -57 -93 -88 -140 -61 -93 -116 -193
-158 -283 -15 -32 -31 -55 -37 -51 -5 3 -7 1 -3 -5 3 -6 -7 -44 -23 -84 -138
-351 -198 -651 -188 -943 5 -127 11 -171 40 -287 19 -75 40 -145 47 -155 11
-17 11 -17 5 2 -10 31 -25 101 -45 215 -24 134 -26 397 -5 543 31 205 114 485
201 679 70 155 264 493 271 471 2 -6 -21 -74 -52 -153 -127 -324 -199 -605
-271 -1055 -25 -157 -27 -193 -28 -485 -1 -378 8 -460 71 -640 24 -68 48 -129
54 -136 13 -16 1 -24 -36 -24 -38 0 -79 -25 -55 -34 8 -3 41 -7 73 -9 48 -3
67 -10 106 -40 64 -49 72 -48 55 10 -8 25 -14 49 -14 53 0 4 46 21 103 39 56
18 117 39 136 47 l35 15 60 -65 c34 -36 74 -71 90 -76 16 -6 25 -14 20 -19
-14 -13 -126 -44 -157 -44 -44 0 -30 -30 18 -39 39 -7 173 20 216 42 10 6 25
7 34 4 9 -4 21 0 28 9 7 9 35 25 62 35 261 102 501 253 666 418 90 90 97 95
118 82 34 -20 54 -72 48 -121 -27 -203 -72 -386 -204 -822 -25 -82 -50 -168
-54 -190 -32 -138 -99 -247 -174 -279 -16 -7 -55 -35 -85 -63 -77 -70 -373
-263 -404 -263 -16 0 -337 -168 -411 -215 -29 -19 -61 -45 -71 -59 -14 -19
-223 -146 -239 -146 -6 0 -159 -92 -189 -113 -39 -28 -65 -91 -72 -179 l-7
-74 94 -56 c701 -417 1579 -664 2634 -743 235 -18 1111 -21 1380 -5 1676 99
2836 476 3645 1186 165 145 410 413 410 449 0 25 -80 81 -202 142 -68 34 -141
67 -163 73 -57 18 -95 39 -126 69 -14 14 -53 36 -85 48 -119 44 -354 114 -386
115 -42 0 -76 10 -218 65 -63 25 -130 56 -149 71 -38 28 -203 112 -223 112
-22 1 -44 23 -65 65 -45 89 -150 472 -173 630 -16 109 -37 212 -65 325 -13 52
-29 128 -36 169 -11 65 -16 76 -43 92 -17 11 -38 19 -47 19 -8 0 -23 6 -32 13
-14 11 -7 23 69 107 104 116 150 184 214 315 92 191 119 314 121 553 0 86 5
152 10 152 5 0 9 -1 9 -2 0 -2 7 -52 15 -113 39 -291 0 -503 -120 -664 -31
-40 -54 -75 -51 -78 9 -9 75 60 118 124 58 87 81 133 109 219 34 101 32 294
-3 457 l-25 118 40 55 c44 63 99 182 122 270 19 70 21 295 4 389 -29 157 -100
359 -194 553 -40 83 -72 152 -70 152 3 0 44 -66 152 -243 89 -148 189 -347
223 -447 27 -77 34 -115 38 -200 4 -94 1 -114 -23 -188 -15 -47 -46 -112 -71
-149 -49 -73 -51 -93 -5 -44 41 44 91 170 109 276 25 146 -1 269 -98 470 -65
134 -157 299 -232 415 -208 323 -406 646 -451 735 -24 48 -24 53 -15 150 16
164 -9 321 -88 542 -85 240 -192 440 -345 643 -107 142 -204 240 -333 338
-217 164 -449 280 -756 377 -185 58 -410 74 -511 35 -61 -23 -60 -23 -169 61
-192 149 -520 226 -845 198z m-162 -53 c4 -9 -11 -18 -51 -29 -58 -16 -216
-48 -230 -46 -4 1 -9 0 -12 -1 -17 -8 -167 -26 -179 -22 -15 6 170 54 294 76
44 8 96 19 115 24 50 14 57 14 63 -2z m32 4 c3 -6 -1 -7 -9 -4 -18 7 -21 14
-7 14 6 0 13 -4 16 -10z m-265 -195 c-35 -20 -132 -57 -137 -52 -5 5 137 66
152 66 6 0 -1 -6 -15 -14z m105 -5 c-5 -15 -2 -20 11 -20 14 0 14 -3 3 -16
-11 -13 -9 -14 14 -9 34 9 35 -8 3 -38 -20 -18 -21 -24 -10 -35 13 -12 9 -43
-4 -40 -4 1 -19 -4 -33 -10 -15 -6 -44 -13 -65 -17 l-39 -6 35 20 35 20 -51
-2 c-29 -1 -50 -5 -48 -9 3 -4 -7 -10 -21 -14 -17 -4 -24 -11 -21 -20 4 -10
-4 -14 -30 -14 -21 0 -33 4 -29 10 3 6 -4 10 -18 10 -21 0 -24 4 -22 37 2 28
9 39 29 50 32 17 34 27 4 18 -22 -6 -22 -5 -3 7 11 7 56 28 100 46 139 59 170
65 160 32z m-265 -60 c-8 -5 -19 -10 -25 -10 -5 0 -3 5 5 10 8 5 20 10 25 10
6 0 3 -5 -5 -10z m2154 -33 c33 -12 75 -29 95 -39 19 -10 42 -18 49 -18 12 0
12 -3 2 -15 -10 -12 -10 -15 0 -15 8 0 11 -2 8 -5 -3 -3 -36 8 -74 23 -38 16
-101 38 -141 50 -40 12 -75 27 -79 34 -4 7 -3 8 4 4 7 -4 12 -3 12 3 0 13 48
5 124 -22z m-1744 -6 c0 -9 -33 -21 -57 -21 -25 0 -13 19 15 23 15 2 30 5 35
6 4 0 7 -3 7 -8z m-80 -21 c0 -5 -4 -10 -9 -10 -6 0 -13 5 -16 10 -3 6 1 10 9
10 9 0 16 -4 16 -10z m1862 -66 c81 -29 228 -104 329 -169 82 -53 305 -272
386 -380 141 -188 185 -272 288 -549 67 -181 79 -232 36 -154 -70 126 -231
374 -330 508 -62 85 -312 364 -380 426 -25 22 -84 76 -131 118 -47 43 -130
107 -185 144 -55 36 -104 69 -109 74 -19 16 23 8 96 -18z m-277 -14 c3 -5 1
-10 -4 -10 -6 0 -11 5 -11 10 0 6 2 10 4 10 3 0 8 -4 11 -10z m-101 -45 c-4
-8 -8 -15 -10 -15 -2 0 -4 7 -4 15 0 8 4 15 10 15 5 0 7 -7 4 -15z m963 -259
c196 -148 458 -490 581 -758 116 -252 192 -537 174 -656 l-4 -33 -46 73 c-73
117 -136 260 -201 457 -147 441 -245 610 -509 884 -41 42 -70 77 -64 77 5 0
36 -20 69 -44z m-3926 -503 c-94 -142 -164 -269 -349 -639 -78 -154 -151 -292
-162 -307 -50 -63 -307 -217 -362 -217 -6 0 46 58 115 129 146 150 204 226
347 454 241 387 456 697 481 697 5 0 -27 -53 -70 -117z m2803 -749 c3 -8 2
-12 -4 -9 -6 3 -10 10 -10 16 0 14 7 11 14 -7z m-3678 -503 c-15 -24 -292
-168 -303 -158 -2 2 14 15 34 29 21 14 58 43 82 64 32 29 61 43 110 55 82 21
83 21 77 10z m-291 -30 l100 -6 -75 -53 c-41 -30 -101 -67 -132 -83 -53 -27
-66 -29 -160 -28 -107 0 -228 24 -235 46 -3 7 15 26 39 43 116 85 169 102 288
93 41 -3 120 -8 175 -12z m4015 -75 c0 -15 -24 -28 -34 -19 -13 14 -5 33 14
33 11 0 20 -6 20 -14z m-140 -58 c22 -46 44 -56 77 -38 15 8 30 26 34 40 l7
25 1 -26 c2 -40 -28 -69 -77 -76 -28 -4 -42 -2 -42 6 0 6 -9 11 -20 11 -17 0
-18 3 -10 26 17 43 13 47 -32 41 -43 -5 -43 -5 -13 9 45 20 59 17 75 -18z m60
2 c0 -5 -5 -10 -11 -10 -5 0 -7 5 -4 10 3 6 8 10 11 10 2 0 4 -4 4 -10z m-244
-71 c3 -6 -2 -18 -11 -27 -10 -10 -15 -12 -11 -5 3 6 1 13 -6 15 -6 2 -8 10
-4 16 9 15 23 15 32 1z m-1216 -264 c0 -8 -9 -15 -20 -15 -11 0 -20 7 -20 15
0 8 9 15 20 15 11 0 20 -7 20 -15z m-2077 -87 c-91 -114 -163 -214 -233 -326
-219 -347 -333 -498 -457 -604 -132 -114 -286 -238 -290 -234 -3 2 16 44 41
93 85 169 250 392 438 589 193 204 551 564 556 559 2 -2 -22 -37 -55 -77z
m1967 57 c0 -7 -70 -35 -84 -34 -6 0 7 9 29 20 41 19 55 23 55 14z m70 -20 c0
-8 -7 -15 -15 -15 -16 0 -20 12 -8 23 11 12 23 8 23 -8z m50 -22 c0 -25 -6
-30 -53 -45 -29 -10 -53 -14 -55 -8 -2 5 -10 6 -18 3 -8 -3 -14 0 -14 7 0 6
-4 8 -10 5 -15 -9 -12 4 7 28 l16 23 23 -23 c31 -31 52 -29 72 7 21 37 32 38
32 3z m3813 -267 c109 -218 157 -396 157 -576 0 -111 -12 -176 -47 -248 -51
-104 -83 -75 -95 83 -4 55 -12 161 -17 235 -6 74 -15 169 -20 210 -13 93 -58
373 -67 420 -13 63 19 19 89 -124z m-2995 -58 c19 -19 14 -28 -13 -28 -18 0
-25 5 -25 20 0 22 20 26 38 8z m129 -14 c-7 -7 -37 7 -37 17 0 6 9 5 21 -1 11
-7 19 -14 16 -16z m2696 -184 c47 -141 89 -292 83 -298 -12 -11 -51 103 -105
308 -11 42 -23 84 -26 95 -17 55 26 -40 48 -105z m-5127 -420 c-3 -17 -2 -29
3 -26 11 7 21 -29 21 -81 0 -51 -99 -281 -112 -260 -4 6 -8 73 -8 147 0 110 3
140 17 160 63 95 91 115 79 60z m-160 -322 c16 -221 15 -230 -40 -353 -86
-193 -204 -398 -308 -537 -101 -134 -174 -218 -191 -218 -6 0 -8 39 -5 93 8
147 78 336 246 667 46 91 93 181 104 200 42 72 173 270 179 270 3 0 10 -55 15
-122z m5268 -515 c-16 -95 -55 -188 -108 -255 -27 -36 -25 -16 4 43 25 49 56
126 95 237 9 26 16 10 9 -25z m-29 -223 c-14 -51 -42 -126 -62 -167 -56 -116
-175 -268 -234 -299 -24 -12 -30 -12 -43 2 -9 8 -16 22 -16 29 0 19 109 164
183 244 60 65 122 155 167 243 14 26 26 45 28 43 2 -2 -8 -45 -23 -95z m-5140
-104 c-20 -148 -99 -375 -176 -507 -76 -132 -252 -349 -283 -349 -34 0 -108
164 -146 320 -33 140 -41 125 131 240 183 122 284 203 414 336 39 39 71 71 73
69 1 -1 -4 -50 -13 -109z m439 -215 c5 -33 1 -84 -24 -279 -13 -93 -57 -200
-123 -294 -108 -154 -191 -226 -395 -342 -80 -45 -85 -47 -108 -31 -29 18
-139 133 -139 144 0 4 45 44 100 88 118 95 197 175 335 338 100 118 246 328
290 414 l22 45 18 -24 c10 -13 21 -40 24 -59z m-1199 -303 c20 -119 91 -285
162 -376 l43 -56 -27 -29 c-30 -31 -169 -117 -190 -117 -25 0 -58 185 -69 380
-7 131 2 177 43 222 24 27 31 22 38 -24z m6359 -1279 c68 -43 51 -47 -19 -4
-33 19 -52 35 -44 35 8 0 36 -14 63 -31z m-5269 -351 c-16 -6 -41 -21 -56 -34
-27 -25 -39 -30 -39 -15 0 14 82 61 105 60 14 0 12 -4 -10 -11z"/>
<path d="M4450 8918 c-16 -7 -20 -12 -12 -15 8 -3 21 2 30 11 19 18 17 19 -18
4z"/>
<path d="M4380 8855 c7 -8 17 -12 22 -9 6 4 5 10 -3 15 -22 14 -33 10 -19 -6z"/>
<path d="M1182 6935 c0 -16 2 -22 5 -12 2 9 2 23 0 30 -3 6 -5 -1 -5 -18z"/>
</g>
</svg>
